<?xml version="1.0" standalone="no"?><!DOCTYPE svg PUBLIC "-//W3C//DTD SVG 1.1//EN" "http://www.w3.org/Graphics/SVG/1.1/DTD/svg11.dtd"><svg t="1693309451266" class="icon" viewBox="0 0 1024 1024" version="1.1" xmlns="http://www.w3.org/2000/svg" p-id="7970" xmlns:xlink="http://www.w3.org/1999/xlink" width="200" height="200"><path d="M260.461103 488.693178m-96.213295 0a96.213295 96.213295 0 1 0 192.426591 0 96.213295 96.213295 0 1 0-192.426591 0Z" fill="#cdcdcd" p-id="7971"></path><path d="M755.273652 488.693178m-96.213295 0a96.213295 96.213295 0 1 0 192.426591 0 96.213295 96.213295 0 1 0-192.426591 0Z" fill="#cdcdcd" p-id="7972"></path><path d="M684.169221 494.888274H237.464343c-9.488095 0-17.181311-7.396457-17.181311-16.884553s7.693216-16.884552 17.181311-16.884552h446.704878c9.496282 0 17.181311 7.396457 17.181311 16.884552s-7.68503 16.884552-17.181311 16.884553z" fill="#cdcdcd" p-id="7973"></path><path d="M689.739077 833.803193H334.627267c-148.412145 0-269.148973-120.736828-269.148973-269.140786V472.985428c0-148.412145 120.736828-269.148973 269.148973-269.148973h355.112833c148.420331 0 269.157159 120.736828 269.15716 269.148973v91.676979c0 148.403958-120.736828 269.140787-269.158183 269.140786zM334.627267 238.199077c-129.461537 0-234.787374 105.325837-234.787374 234.787374v91.676979c0 129.461537 105.325837 234.778164 234.787374 234.778165h355.112833c129.461537 0 234.795561-105.317651 234.795561-234.778165v-91.678002c0-129.461537-105.334024-234.787374-234.795561-234.787374H334.627267z" fill="#cdcdcd" p-id="7974"></path></svg>