<svg width="16" height="16" viewBox="0 0 16 16" fill="none" xmlns="http://www.w3.org/2000/svg">
<g clip-path="url(#clip0_22_1388)">
<path fill-rule="evenodd" clip-rule="evenodd" d="M14 8C14 11.3137 11.3137 14 8 14C4.68629 14 2 11.3137 2 8C2 4.68629 4.68629 2 8 2C11.3137 2 14 4.68629 14 8ZM15 8C15 11.866 11.866 15 8 15C4.13401 15 1 11.866 1 8C1 4.13401 4.13401 1 8 1C11.866 1 15 4.13401 15 8ZM8 6.58584L9.41421 8.00006L8 9.41427L6.58579 8.00006L8 6.58584ZM7.78787 5.38376C7.90503 5.26661 8.09497 5.26661 8.21213 5.38376L10.6163 7.78793C10.7335 7.90508 10.7335 8.09503 10.6163 8.21219L8.21213 10.6164C8.09497 10.7335 7.90503 10.7335 7.78787 10.6164L5.38371 8.21219C5.26655 8.09503 5.26655 7.90508 5.38371 7.78793L7.78787 5.38376Z" fill="#808286"/>
</g>
<defs>
<clipPath id="clip0_22_1388">
<rect width="16" height="16" fill="white"/>
</clipPath>
</defs>
</svg>
