<?xml version="1.0" encoding="UTF-8"?>
<svg width="38px" height="31px" viewBox="0 0 38 31" version="1.1" xmlns="http://www.w3.org/2000/svg" xmlns:xlink="http://www.w3.org/1999/xlink">
    <title>编组@2x</title>
    <g id="页面-1" stroke="none" stroke-width="1" fill="none" fill-rule="evenodd">
        <g id="01效果图" transform="translate(-476.000000, -74.000000)" fill="#E50012">
            <g id="121x75" transform="translate(464.000000, 62.000000)">
                <g id="编组" transform="translate(12.221339, 12.546920)">
                    <path d="M17.5338966,1.84963837 C15.8691855,1.76129639 12.4866342,1.77896478 10.6094067,1.79663318 C8.05921099,1.81430158 7.61646867,2.85673703 7.7935656,4.30554562 C7.84669468,4.71191876 8.09463038,5.50699665 8.16546915,5.8250278 C7.20914574,6.26673774 4.21620766,7.78621992 2.67546439,8.84632377 C1.31181805,9.80041723 0.497172179,10.9135263 1.94936699,12.6096924 C2.12646391,12.8040448 2.95881947,14.1115062 3.11820671,14.2705218 C2.39210931,15.9490196 1.34723743,17.8572065 0.638849722,19.747725 C-0.264344609,22.221546 -0.370602766,23.5640989 1.38265682,24.2175842 C6.89037127,26.2673637 14.859733,28.7409393 17.2151221,29.8187116 C13.708603,27.1861203 6.94350035,25.0482442 3.64949749,23.2283993 C2.17959299,22.4158984 1.96707668,21.8325959 2.44523838,20.5781397 C2.94110978,19.3060151 3.98598165,16.7617658 4.65894998,15.7723356 C8.37798546,19.3766887 12.7345699,23.88213 14.1159259,25.6313014 C12.1324403,21.7619223 7.82898498,16.726429 5.42046677,13.8464803 C3.20675517,11.213889 3.10049702,10.8251843 4.74749844,9.69440685 C5.81008001,8.98767095 7.98837222,8.03357749 8.87385686,7.60953595 C10.9636006,13.3164283 13.017925,19.3943571 13.5669254,22.0978673 C13.4606673,17.4154965 11.3532138,10.3128008 10.5739874,6.60243729 C10.1843741,4.69425037 9.77705119,3.84616729 11.8667949,3.7754937 C13.0533443,3.7401569 15.5681207,3.52813613 17.3036706,3.66948331 C16.3119278,9.78274884 14.7357652,17.2034758 13.9742484,19.6947198 C16.0639921,15.6663252 17.7641226,7.9275671 19.1631884,4.04051966 C19.7121888,2.53870588 19.4642531,1.88497517 22.4394815,2.68005306 L27.770099,4.09352485 C24.6531931,8.08658268 20.6862219,13.6167911 16.878638,17.1858074 C20.4559959,14.6415581 25.8574522,8.88166057 28.637874,5.96637498 C29.8244234,4.74725556 30.0723591,4.60590838 31.4360054,5.878033 C33.0652972,7.41518358 35.2612991,9.18202332 37.2093653,10.1714536 C36.4478485,9.18202332 33.8976527,6.42575332 31.9850059,3.91684088 C30.2317463,1.61994921 29.2577132,2.23834312 28.5316158,3.26311017 C27.3450664,2.66238466 24.1219023,1.54927562 21.7842229,0.683524141 C17.8526711,-0.800621246 18.029768,0.383161384 17.5338966,1.84963837" id="Fill-1"></path>
                    <path d="M30.4619723,15.2069714 C29.9661009,14.3942251 29.4525198,13.4931368 28.8326806,12.4507014 C28.2128414,13.4931368 27.6638409,14.3942251 27.1679695,15.2069714 C26.5127108,16.2494068 25.9637104,17.0798215 25.5386777,17.8042258 L22.1915458,23.0870767 C21.8550617,23.8995776 21.9081907,24.7302376 22.3332234,25.5250701 C22.7051269,26.4087354 23.448934,26.9917925 24.4760962,27.2214817 C25.9637104,27.5748496 27.1148404,27.0447977 27.9117766,25.6489943 C28.0888735,26.302725 27.9649057,27.0801345 27.5575827,27.8928808 C27.1325501,28.7235409 26.5835496,29.3770262 25.9105813,29.8184907 L31.6308121,29.8184907 C30.9578437,29.3770262 30.4088433,28.7235409 30.01923,27.8928808 C29.6296168,27.0801345 29.5233586,26.302725 29.7004555,25.6489943 C30.4973917,27.0447977 31.6308121,27.5748496 33.1184263,27.2214817 C34.1455884,26.9917925 34.8539761,26.4087354 35.2790088,25.5250701 C35.668622,24.7302376 35.7040414,23.8995776 35.4029766,23.0870767 L32.0735544,17.8042258 C31.6485218,17.0798215 31.0995213,16.2494068 30.4619723,15.2069714" id="Fill-3"></path>
                </g>
            </g>
        </g>
    </g>
</svg>